<?xml version="1.0" encoding="utf-8"?>
<!-- Generator: Adobe Illustrator 19.0.0, SVG Export Plug-In . SVG Version: 6.00 Build 0)  -->
<svg version="1.1" id="Layer_1" xmlns="http://www.w3.org/2000/svg" xmlns:xlink="http://www.w3.org/1999/xlink" x="0px" y="0px"
	 viewBox="0 0 603 267" style="enable-background:new 0 0 603 267;" xml:space="preserve">
<style type="text/css">
	.st0{opacity:0.3;}
	.st1{opacity:0.7;fill:#FFF555;stroke:#FFC000;stroke-miterlimit:10;}
	.st2{opacity:0.7;fill:#FFFFFF;}
	.st3{fill:#BCBEC0;}
	.st4{fill:#231F20;}
	.st5{fill:#FFFFFF;}
	.st6{fill:#18AFFE;}
	.st7{fill:#D1D3D4;stroke:#231F20;stroke-width:3.2;stroke-linejoin:round;stroke-miterlimit:10;}
	.st8{fill:#D1D3D4;}
	.st9{fill:#58595B;}
	.st10{fill:#939598;}
	.st11{fill:#E6E7E8;}
	.st12{fill:#FFA432;}
	.st13{fill:#F1F2F2;}
	.st14{fill:#FFFFFF;stroke:#000000;stroke-miterlimit:10;}
	.st15{fill:#E6E7E8;stroke:#231F20;stroke-width:3.2;stroke-linejoin:round;stroke-miterlimit:10;}
	.st16{fill:#19CEC4;stroke:#231F20;stroke-width:3.2;stroke-linejoin:round;stroke-miterlimit:10;}
	.st17{fill:#FFD248;}
</style>
<g id="XMLID_129_">
	<g id="XMLID_327_" class="st0">
		<path id="XMLID_127_" class="st1" d="M532.3,114.8c0,62.4-43.7,112.9-97.5,112.9c-53.9,0-97.5-50.6-97.5-112.9
			c0-62.4,43.7-112.9,97.5-112.9C488.7,1.8,532.3,52.4,532.3,114.8z"/>
		<ellipse id="XMLID_126_" class="st2" cx="337.3" cy="198.7" rx="49.8" ry="57.7"/>
	</g>
	<g id="XMLID_130_">
		<g id="XMLID_309_">
			<rect id="XMLID_125_" x="309.5" y="165.5" class="st3" width="8.4" height="58.4"/>
			<rect id="XMLID_124_" x="278.1" y="214.2" class="st3" width="76.8" height="9.7"/>
			<g id="XMLID_316_">
				<path id="XMLID_317_" class="st4" d="M350.2,220.6h-5.3v-2.5h5.3V220.6z M339.6,220.6h-5.3v-2.5h5.3V220.6z M328.9,220.6h-5.3
					v-2.5h5.3V220.6z M318.3,220.6h-5.3v-2.5h5.3V220.6z M307.6,220.6h-5.3v-2.5h5.3V220.6z M296.9,220.6h-5.3v-2.5h5.3V220.6z
					 M286.3,220.6h-5.3v-2.5h5.3V220.6z"/>
			</g>
			<g id="XMLID_310_">
				<path id="XMLID_311_" class="st4" d="M315.1,214.2h-2.1V208h2.1V214.2z M315.1,201.8h-2.1v-6.2h2.1V201.8z M315.1,189.5h-2.1
					v-6.2h2.1V189.5z M315.1,177.1h-2.1V171h2.1V177.1z"/>
			</g>
		</g>
		<g id="XMLID_291_">
			<rect id="XMLID_112_" x="383.5" y="72.1" class="st3" width="8.4" height="59"/>
			<rect id="XMLID_111_" x="352.1" y="120.8" class="st5" width="76.8" height="10.4"/>
			<g id="XMLID_298_">
				<path id="XMLID_299_" class="st4" d="M424.2,127.2h-5.3v-2.5h5.3V127.2z M413.6,127.2h-5.3v-2.5h5.3V127.2z M402.9,127.2h-5.3
					v-2.5h5.3V127.2z M392.2,127.2h-5.3v-2.5h5.3V127.2z M381.6,127.2h-5.3v-2.5h5.3V127.2z M370.9,127.2h-5.3v-2.5h5.3V127.2z
					 M360.2,127.2h-5.3v-2.5h5.3V127.2z"/>
			</g>
			<g id="XMLID_292_">
				<path id="XMLID_293_" class="st4" d="M389,120.8h-2.1v-6.2h2.1V120.8z M389,108.4h-2.1v-6.2h2.1V108.4z M389,96.1h-2.1v-6.2h2.1
					V96.1z M389,83.7h-2.1v-6.2h2.1V83.7z"/>
			</g>
		</g>
		<g id="XMLID_269_">
			<rect id="XMLID_99_" x="490.5" y="148" class="st3" width="9" height="58.4"/>
			<rect id="XMLID_98_" x="459.1" y="196.7" class="st3" width="76.8" height="9.7"/>
			<g id="XMLID_276_">
				<g id="XMLID_287_">
					<rect id="XMLID_97_" x="461.9" y="200.6" class="st4" width="2.7" height="2.5"/>
				</g>
				<g id="XMLID_279_">
					<path id="XMLID_280_" class="st4" d="M525.9,203.1h-5.1v-2.5h5.1V203.1z M515.7,203.1h-5.1v-2.5h5.1V203.1z M505.5,203.1h-5.1
						v-2.5h5.1V203.1z M495.3,203.1h-5.1v-2.5h5.1V203.1z M485,203.1h-5.1v-2.5h5.1V203.1z M474.8,203.1h-5.1v-2.5h5.1V203.1z"/>
				</g>
				<g id="XMLID_277_">
					<rect id="XMLID_90_" x="531" y="200.6" class="st4" width="2.7" height="2.5"/>
				</g>
			</g>
			<g id="XMLID_270_">
				<path id="XMLID_271_" class="st4" d="M496.1,196.7h-2.1v-6.2h2.1V196.7z M496.1,184.3h-2.1v-6.2h2.1V184.3z M496.1,172h-2.1
					v-6.2h2.1V172z M496.1,159.6h-2.1v-6.2h2.1V159.6z"/>
			</g>
		</g>
		<g id="XMLID_259_">
			<path id="XMLID_85_" class="st6" d="M376.3,140.2c-6.1,0-11.8,1.9-16.5,5.6c-3.2-4.2-7.6-7.3-12.5-8.2c0.2-1.6,0.3-3.3,0.3-5
				c0-18.6-13.1-33.8-29.1-33.8c-16.1,0-29.2,15.1-29.2,33.7c0,2.7,0.3,5.4,0.8,8c-2.2-0.6-4.4-0.3-6.7-0.3
				c-16.1,0-29.1,13.6-29.1,34.4h151.3C405.4,153.8,392.4,140.2,376.3,140.2z"/>
			<g id="XMLID_266_">
				<path id="XMLID_84_" class="st7" d="M254.6,173.3"/>
			</g>
			<g id="XMLID_263_">
				<path id="XMLID_83_" class="st8" d="M290,140.5c0,0,3.6,3.3,4.7,4"/>
				<path id="XMLID_82_" class="st4" d="M294.3,145.6c-1.2-0.7-4.5-3.8-4.9-4.1l1.3-1.9c1.4,1.3,3.8,3.4,4.6,3.9L294.3,145.6z"/>
			</g>
			<g id="XMLID_260_">
				<path id="XMLID_81_" class="st8" d="M359.7,145.6c0,0-1.6,3.2-1.7,5.6"/>
				<path id="XMLID_80_" class="st4" d="M359.1,151.2l-2.1-0.1c0.1-2.7,1.7-6.1,1.8-6.2l1.8,1.2C360.2,147,359.2,149.5,359.1,151.2z
					"/>
			</g>
		</g>
		<g id="XMLID_249_">
			<path id="XMLID_79_" class="st6" d="M433.3,52.6c-6.1,0-11.8,1.9-16.5,5.6c-3.2-4.2-7.6-7.3-12.5-8.3c0.2-1.6,0.3-3.3,0.3-5
				c0-18.6-13.1-33.8-29.1-33.8c-16.1,0-29.2,15.1-29.2,33.7c0,2.7,0.3,5.4,0.8,8c-2.2-0.6-4.4-0.3-6.7-0.3
				c-16.1,0-29.1,13.6-29.1,34.4h151.3C462.5,66.2,449.4,52.6,433.3,52.6z"/>
			<g id="XMLID_256_">
				<path id="XMLID_78_" class="st7" d="M311.7,85.7"/>
			</g>
			<g id="XMLID_253_">
				<path id="XMLID_77_" class="st8" d="M347.1,52.8c0,0,3.6,3.3,4.7,4"/>
				<path id="XMLID_76_" class="st4" d="M351.3,58c-1.2-0.7-4.5-3.8-4.9-4.1l1.3-1.9c1.4,1.3,3.8,3.4,4.6,3.9L351.3,58z"/>
			</g>
			<g id="XMLID_250_">
				<path id="XMLID_75_" class="st8" d="M416.8,57.9c0,0-1.6,3.2-1.7,5.6"/>
				<path id="XMLID_74_" class="st4" d="M416.2,63.6l-2.1-0.1c0.1-2.7,1.8-6.1,1.8-6.2l1.8,1.2C417.3,59.3,416.2,61.8,416.2,63.6z"
					/>
			</g>
		</g>
		<g id="XMLID_239_">
			<path id="XMLID_73_" class="st6" d="M537.8,129c-6.1,0-11.8,1.8-16.5,5.6c-3.2-4.2-7.6-7.3-12.5-8.3c0.2-1.6,0.3-3.4,0.3-5
				c0-18.6-13.1-33.8-29.1-33.8c-16.1,0-29.2,15.1-29.2,33.7c0,2.7,0.3,5.4,0.8,8c-2.2-0.6-4.4-0.1-6.7-0.1
				c-16.1,0-29.1,13.8-29.1,34.5H567C567,142.8,553.9,129,537.8,129z"/>
			<g id="XMLID_246_">
				<path id="XMLID_72_" class="st7" d="M416.2,162"/>
			</g>
			<g id="XMLID_243_">
				<path id="XMLID_71_" class="st8" d="M451.6,129.1c0,0,3.6,3.3,4.7,4"/>
				<path id="XMLID_70_" class="st4" d="M455.8,134.2c-1.2-0.7-4.5-3.8-4.9-4.1l1.3-1.9c1.4,1.3,3.8,3.4,4.6,3.9L455.8,134.2z"/>
			</g>
			<g id="XMLID_240_">
				<path id="XMLID_69_" class="st8" d="M521.3,134.2c0,0-1.6,3.2-1.7,5.6"/>
				<path id="XMLID_68_" class="st4" d="M520.7,139.9l-2.1-0.1c0.1-2.7,1.7-6.1,1.8-6.2l1.8,1.2
					C521.8,135.6,520.7,138.1,520.7,139.9z"/>
			</g>
		</g>
		<g id="XMLID_135_">
			<rect id="XMLID_67_" x="356.6" y="144.8" class="st9" width="113.2" height="12.3"/>
			<rect id="XMLID_66_" x="355.5" y="193.4" class="st9" width="113.2" height="13"/>
			<rect id="XMLID_65_" x="354.9" y="242.7" class="st9" width="113.2" height="13"/>
			<g id="XMLID_231_">
				<rect id="XMLID_64_" x="347.6" y="107.1" class="st10" width="131.1" height="37"/>
				<path id="XMLID_232_" class="st4" d="M478.8,145.3H347.6c-0.6,0-1.1-0.6-1.1-1.2v-37c0-0.7,0.5-1.2,1.1-1.2h131.1
					c0.6,0,1.1,0.6,1.1,1.2v37C479.8,144.8,479.3,145.3,478.8,145.3z M348.7,142.9h129v-34.5h-129V142.9z"/>
			</g>
			<g id="XMLID_226_">
				<rect id="XMLID_61_" x="347.1" y="157.1" class="st10" width="131.1" height="36.3"/>
				<path id="XMLID_227_" class="st4" d="M478.2,194.7H347.1c-0.6,0-1.1-0.6-1.1-1.2v-36.3c0-0.7,0.5-1.2,1.1-1.2h131.1
					c0.6,0,1.1,0.6,1.1,1.2v36.3C479.3,194.1,478.8,194.7,478.2,194.7z M348.1,192.2h129v-33.9h-129V192.2z"/>
			</g>
			<g id="XMLID_221_">
				<rect id="XMLID_58_" x="346.5" y="206.4" class="st10" width="131.1" height="36.3"/>
				<path id="XMLID_222_" class="st4" d="M477.6,244H346.5c-0.6,0-1.1-0.6-1.1-1.2v-36.3c0-0.7,0.5-1.2,1.1-1.2h131.1
					c0.6,0,1.1,0.6,1.1,1.2v36.3C478.7,243.4,478.2,244,477.6,244z M347.6,241.5h129v-33.9h-129V241.5z"/>
			</g>
			<g id="XMLID_217_">
				<rect id="XMLID_54_" x="355.5" y="114.9" class="st4" width="2.1" height="18.8"/>
			</g>
			<g id="XMLID_215_">
				<rect id="XMLID_53_" x="362.2" y="114.9" class="st4" width="2.1" height="18.8"/>
			</g>
			<g id="XMLID_213_">
				<rect id="XMLID_52_" x="369" y="114.9" class="st4" width="2.1" height="18.8"/>
			</g>
			<g id="XMLID_211_">
				<rect id="XMLID_51_" x="376.2" y="114.9" class="st4" width="2.1" height="18.8"/>
			</g>
			<g id="XMLID_209_">
				<rect id="XMLID_50_" x="383" y="114.9" class="st4" width="2.1" height="18.8"/>
			</g>
			<rect id="XMLID_49_" x="390.8" y="114.9" class="st11" width="78.5" height="9.7"/>
			<ellipse id="XMLID_48_" class="st5" cx="455.4" cy="127.3" rx="8" ry="9.3"/>
			<g id="XMLID_205_">
				<rect id="XMLID_47_" x="453" y="126" class="st4" width="5.6" height="2.5"/>
			</g>
			<ellipse id="XMLID_46_" class="st5" cx="364.3" cy="174.9" rx="8" ry="9.3"/>
			<g id="XMLID_202_">
				<rect id="XMLID_45_" x="361.6" y="173.4" class="st4" width="6.2" height="2.5"/>
			</g>
			<ellipse id="XMLID_44_" class="st5" cx="390.4" cy="174.9" rx="8" ry="9.3"/>
			<g id="XMLID_199_">
				<rect id="XMLID_43_" x="388" y="173.4" class="st4" width="5.6" height="2.5"/>
			</g>
			<ellipse id="XMLID_42_" class="st5" cx="415.5" cy="174.9" rx="8" ry="9.3"/>
			<g id="XMLID_196_">
				<rect id="XMLID_41_" x="413.2" y="173.4" class="st4" width="5.6" height="2.5"/>
			</g>
			<g id="XMLID_194_">
				<rect id="XMLID_40_" x="390.8" y="129.9" class="st4" width="42" height="2.5"/>
			</g>
			<g id="XMLID_192_">
				<rect id="XMLID_39_" x="436.2" y="129.9" class="st4" width="5.6" height="2.5"/>
			</g>
			<rect id="XMLID_38_" x="393" y="116.9" class="st12" width="2.2" height="5.8"/>
			<rect id="XMLID_37_" x="398.6" y="116.9" class="st12" width="2.2" height="5.8"/>
			<rect id="XMLID_36_" x="403.7" y="116.9" class="st12" width="2.2" height="5.8"/>
			<rect id="XMLID_35_" x="409.3" y="116.9" class="st12" width="2.2" height="5.8"/>
			<rect id="XMLID_34_" x="414.3" y="116.9" class="st12" width="2.2" height="5.8"/>
			<rect id="XMLID_33_" x="419.9" y="116.9" class="st9" width="2.2" height="5.8"/>
			<rect id="XMLID_32_" x="425" y="116.9" class="st9" width="2.2" height="5.8"/>
			<rect id="XMLID_31_" x="430.6" y="116.9" class="st9" width="2.2" height="5.8"/>
			<rect id="XMLID_30_" x="435.6" y="116.9" class="st9" width="2.2" height="5.8"/>
			<rect id="XMLID_29_" x="441.8" y="116.9" class="st9" width="2.2" height="5.8"/>
			<rect id="XMLID_28_" x="431.7" y="165.5" class="st13" width="6.2" height="11"/>
			<rect id="XMLID_27_" x="442.3" y="165.5" class="st12" width="6.2" height="11"/>
			<rect id="XMLID_26_" x="453" y="165.5" class="st13" width="6.2" height="11"/>
			<rect id="XMLID_25_" x="463.6" y="165.5" class="st12" width="6.2" height="11"/>
			<g id="XMLID_176_">
				<rect id="XMLID_24_" x="434" y="170.7" class="st4" width="2.1" height="13"/>
			</g>
			<g id="XMLID_174_">
				<rect id="XMLID_23_" x="444.6" y="170.7" class="st4" width="2.1" height="13"/>
			</g>
			<g id="XMLID_172_">
				<rect id="XMLID_22_" x="455.3" y="170.7" class="st4" width="2.1" height="13"/>
			</g>
			<g id="XMLID_170_">
				<rect id="XMLID_21_" x="465.9" y="170.7" class="st4" width="2.1" height="13"/>
			</g>
			<g id="XMLID_168_">
				<rect id="XMLID_20_" x="431.7" y="169.5" class="st4" width="6.2" height="2.5"/>
			</g>
			<g id="XMLID_166_">
				<rect id="XMLID_19_" x="442.3" y="169.5" class="st4" width="6.2" height="2.5"/>
			</g>
			<g id="XMLID_164_">
				<rect id="XMLID_18_" x="453" y="169.5" class="st4" width="6.2" height="2.5"/>
			</g>
			<g id="XMLID_162_">
				<rect id="XMLID_17_" x="463.6" y="169.5" class="st4" width="6.2" height="2.5"/>
			</g>
			<rect id="XMLID_16_" x="425" y="214.2" class="st12" width="43.7" height="19.5"/>
			<ellipse id="XMLID_15_" class="st5" cx="363.2" cy="224.2" rx="8" ry="9.3"/>
			<g id="XMLID_158_">
				<rect id="XMLID_14_" x="360.5" y="222.7" class="st4" width="6.2" height="2.5"/>
			</g>
			<g id="XMLID_156_">
				<rect id="XMLID_13_" x="431.2" y="214.2" class="st4" width="2.1" height="19.5"/>
			</g>
			<g id="XMLID_154_">
				<rect id="XMLID_12_" x="428.9" y="213" class="st4" width="6.2" height="2.5"/>
			</g>
			<g id="XMLID_152_">
				<rect id="XMLID_11_" x="440.1" y="214.2" class="st4" width="2.1" height="19.5"/>
			</g>
			<g id="XMLID_150_">
				<rect id="XMLID_10_" x="437.8" y="232.4" class="st4" width="6.7" height="2.5"/>
			</g>
			<g id="XMLID_148_">
				<rect id="XMLID_9_" x="452.5" y="214.2" class="st4" width="2.1" height="19.5"/>
			</g>
			<g id="XMLID_146_">
				<rect id="XMLID_8_" x="450.2" y="213" class="st4" width="6.7" height="2.5"/>
			</g>
			<g id="XMLID_144_">
				<rect id="XMLID_7_" x="461.4" y="214.2" class="st4" width="2.1" height="19.5"/>
			</g>
			<g id="XMLID_142_">
				<rect id="XMLID_6_" x="459.1" y="232.4" class="st4" width="6.7" height="2.5"/>
			</g>
			<g id="XMLID_140_">
				<rect id="XMLID_5_" x="378.4" y="216.8" class="st4" width="40.9" height="2.5"/>
			</g>
			<g id="XMLID_138_">
				<rect id="XMLID_4_" x="378.4" y="222.7" class="st4" width="40.9" height="2.5"/>
			</g>
			<g id="XMLID_136_">
				<rect id="XMLID_3_" x="378.4" y="229.2" class="st4" width="40.9" height="2.5"/>
			</g>
		</g>
	</g>
</g>
<g>
	<g>
		<g>
			<g>
				<path id="XMLID_272_" class="st7" d="M194.7,128.7"/>
			</g>
		</g>
	</g>
	<g>
		<g>
			<polygon id="XMLID_268_" class="st6" points="280,77.3 242.4,77.3 242.4,115.9 261.2,115.9 261.2,129.3 271.2,115.9 280,115.9 
							"/>
			<g>
				<rect id="XMLID_267_" x="246.5" y="84.1" class="st4" width="7.3" height="2"/>
			</g>
			<g>
				<rect id="XMLID_265_" x="246.5" y="93.6" class="st4" width="28.9" height="2"/>
			</g>
			<g>
				<rect id="XMLID_264_" x="246.5" y="101" class="st4" width="28.9" height="2"/>
			</g>
			<g>
				<rect id="XMLID_262_" x="246.5" y="108.5" class="st4" width="6.4" height="2"/>
			</g>
			<g>
				<rect id="XMLID_261_" x="257.1" y="108.5" class="st4" width="7.8" height="2"/>
			</g>
			<g>
				<rect id="XMLID_258_" x="267.6" y="108.5" class="st4" width="7.8" height="2"/>
			</g>
			<g>
				<rect id="XMLID_257_" x="257.5" y="84.1" class="st4" width="17.9" height="2"/>
			</g>
		</g>
		<g>
			<polygon id="XMLID_255_" class="st14" points="233.7,94.9 257.5,94.9 257.5,118 245.6,118 245.6,126.8 239.1,118 233.7,118 			
				"/>
			<g>
				<rect id="XMLID_254_" x="244.7" y="99.7" class="st4" width="8.7" height="2"/>
			</g>
			<g>
				<rect id="XMLID_252_" x="236.9" y="109.1" class="st4" width="16.5" height="2"/>
			</g>
		</g>
	</g>
	<g>
		<g>
			<polygon id="XMLID_251_" class="st10" points="118.4,143.7 118.4,131.5 98,153.8 118.1,176.1 118.1,164.6 118.1,164.8 
				144.3,164.8 144.3,143.7 			"/>
			<path class="st4" d="M118.4,177.2c-0.1,0-0.3-0.1-0.4-0.2l-20.2-22.4c-0.2-0.2-0.3-0.5-0.3-0.8c0-0.3,0.1-0.6,0.3-0.8l20.3-22.4
				c0.2-0.2,0.5-0.3,0.7-0.1c0.2,0.2,0.4,0.5,0.4,0.9l0,11.1h25.4c0.4,0,0.7,0.5,0.7,1v21c0,0.6-0.3,1-0.7,1h-25.4v10.7
				c0,0.4-0.1,0.7-0.4,0.9C118.6,177.1,118.5,177.2,118.4,177.2z M99.3,153.7l18.4,20.4v-9.7c0-0.6,0.3-1,0.7-1h25.4v-19h-25.4
				c-0.2,0-0.4-0.1-0.5-0.3c-0.1-0.2-0.2-0.5-0.2-0.7l0-10.1L99.3,153.7z"/>
		</g>
	</g>
	<g>
		<g>
			<polygon id="XMLID_245_" class="st6" points="324.2,164.8 324.1,176.5 344.1,153.9 323.5,131.3 323.5,142.8 323.5,143.7 
				297.4,143.7 297.4,164.8 			"/>
			<path class="st4" d="M324.1,177.3c-0.1,0-0.2,0-0.3-0.1c-0.2-0.2-0.4-0.5-0.4-0.9l0-10.9h-25.8c-0.4,0-0.7-0.5-0.7-1v-21
				c0-0.6,0.3-1,0.7-1h25.4v-11.1c0-0.4,0.1-0.7,0.4-0.9c0.2-0.2,0.5-0.1,0.7,0.1l20.5,22.5c0.2,0.2,0.3,0.5,0.3,0.8
				c0,0.3-0.1,0.6-0.3,0.8l-20.1,22.5C324.4,177.3,324.3,177.3,324.1,177.3z M298.3,163.4h25.8c0.2,0,0.4,0.1,0.5,0.3
				c0.1,0.2,0.2,0.5,0.2,0.7l0,9.8l18.2-20.5l-18.6-20.5v10.1c0,0.6-0.3,1-0.7,1h-25.4V163.4z"/>
		</g>
	</g>
	<g>
		<g>
			<g>
				<path id="XMLID_241_" class="st15" d="M358.1,226.1"/>
			</g>
		</g>
	</g>
	<g>
		<g>
			<path id="XMLID_238_" class="st11" d="M264.5,160.6c-9.4,0-18.1,3.7-25.3,11.1c-4.9-8.2-11.6-14.2-19.2-16.1
				c0.3-3.2,0.5-6.5,0.5-9.8c0-36.5-20-66.1-44.6-66.1c-24.7,0-44.7,29.5-44.7,66c0,5.4,0.5,10.6,1.3,15.6
				c-3.3-1.2-6.7-0.6-10.3-0.6c-24.7,0-44.6,26.5-44.6,67.2h231.7C309.2,187.1,289.2,160.6,264.5,160.6z"/>
			<g>
				<path id="XMLID_237_" class="st16" d="M78.2,225.4"/>
			</g>
		</g>
	</g>
	<g>
		<g>
			<polygon id="XMLID_236_" class="st5" points="165.6,93.6 131,93.6 131,182.4 175.9,182.4 175.9,108.7 			"/>
			<path class="st4" d="M176.1,183.1h-44.9c-0.4,0-0.7-0.5-0.7-1V93.2c0-0.6,0.3-1,0.7-1h34.4c0.2,0,0.4,0.1,0.5,0.3l10.6,15.5
				c0.1,0.2,0.2,0.5,0.2,0.7V182C176.8,182.6,176.5,183.1,176.1,183.1z M131.9,181h43.6v-71.9l-10.2-14.9h-33.4V181z"/>
		</g>
		<g>
			<path id="XMLID_233_" class="st4" d="M175.9,110.5h-10.8c-0.4,0-0.7-0.5-0.7-1V92.9h1.4v15.6h10.1V110.5z"/>
		</g>
		<ellipse id="XMLID_230_" class="st6" cx="139.9" cy="105.5" rx="4.1" ry="6.1"/>
		<g>
			<rect id="XMLID_229_" x="147.5" y="101.7" class="st4" width="6.4" height="2"/>
		</g>
		<g>
			<rect id="XMLID_228_" x="147.5" y="107.8" class="st4" width="6.4" height="2"/>
		</g>
		<g>
			<rect id="XMLID_225_" x="136.9" y="124.7" class="st4" width="33.5" height="2"/>
		</g>
		<g>
			<rect id="XMLID_224_" x="136.9" y="134.9" class="st4" width="33.5" height="2"/>
		</g>
		<g>
			<rect id="XMLID_223_" x="136.9" y="146.4" class="st4" width="33.5" height="2"/>
		</g>
		<g>
			<rect id="XMLID_220_" x="136.9" y="156.6" class="st4" width="33.5" height="2"/>
		</g>
		<g>
			<rect id="XMLID_218_" x="136.9" y="166.8" class="st4" width="33.5" height="2"/>
		</g>
	</g>
	<g>
		<g>
			<path id="XMLID_216_" class="st3" d="M214.4,174.2l0-9.4c1.5-0.6,2.4-1.3,3.5-2.1l4.5,6.6c0.4,0.6,1.1,0.6,1.6,0l6.4-9.6
				c0.4-0.6,0.4-1.7,0-2.3l-4.5-6.7c0.6-1.6,1.1-2.9,1.4-5.2l6.4,0c0.6,0,1.1-0.6,1.1-1.5l0-13.5c0-0.9-0.5-1.7-1.1-1.7l-6.4,0.1
				c-0.4-2.2-0.9-3.4-1.4-5l4.5-6.7c0.4-0.6,0.4-1.6,0-2.3l-6.5-9.5c-0.4-0.6-1.1-0.6-1.5,0l-4.5,6.7c-1.1-0.8-2-1.6-3.5-2.1l0-9.4
				c0-0.9-0.4-1.8-1-1.8l-9.1,0.1c-0.6,0-1.1,0.9-1.1,1.8l0,9.4c-1.5,0.6-2.3,1.3-3.4,2.1l-4.5-6.6c-0.4-0.6-1.1-0.6-1.5,0l-6.4,9.6
				c-0.4,0.6-0.4,1.7,0,2.3l4.5,6.6c-0.6,1.6-1.1,2.8-1.4,5l-6.4,0c-0.6,0-1.2,0.8-1.2,1.7l0,13.5c0,0.9,0.6,1.5,1.2,1.5l6.4,0
				c0.4,2.2,0.9,3.5,1.5,5.1l-4.5,6.7c-0.4,0.6-0.4,1.7,0,2.3l6.5,9.5c0.4,0.6,1.1,0.6,1.5,0l4.5-6.7c1.1,0.9,1.9,1.6,3.4,2.1l0,9.4
				c0,0.9,0.6,1.6,1.2,1.6l9.1-0.1C214,175.7,214.4,175.1,214.4,174.2z"/>
			<path class="st4" d="M204.3,177c-1,0-1.9-1.2-1.9-2.7l0-8.6c-1-0.4-1.8-1-2.6-1.6l-4.1,6.1c-0.3,0.5-0.8,0.8-1.3,0.8
				c-0.5,0-0.9-0.3-1.3-0.8l-6.5-9.5c-0.3-0.5-0.5-1.2-0.5-1.9c0-0.7,0.2-1.4,0.5-1.9l4.1-6.1c-0.4-1.2-0.8-2.3-1.1-3.9l-5.8,0
				c-1.1,0-1.9-1.2-1.9-2.6l0-13.5c0-0.7,0.2-1.4,0.6-2c0.4-0.5,0.8-0.8,1.3-0.9l5.8,0c0.3-1.6,0.7-2.6,1.1-3.8l-4.1-6
				c-0.7-1-0.7-2.8,0-3.8l6.4-9.6c0.3-0.5,0.8-0.8,1.3-0.8c0.5,0,0.9,0.3,1.3,0.8l4.1,6c0.8-0.6,1.5-1.2,2.5-1.6l0-8.6
				c0-1.5,0.9-2.9,1.9-2.9l9.1-0.1c1,0,1.8,1.3,1.8,2.8l0,8.6c1.1,0.4,1.8,1,2.6,1.6l4.1-6.1c0.3-0.5,0.8-0.8,1.3-0.8
				c0.5,0,0.9,0.3,1.3,0.8l6.5,9.5c0.7,1,0.7,2.8,0,3.8l-4.1,6.1c0.4,1.1,0.8,2.2,1.1,3.7l5.8,0c1,0,1.8,1.3,1.8,2.8l0,13.5
				c0,1.5-0.8,2.6-1.8,2.6l-5.8,0c-0.3,1.6-0.7,2.7-1.1,3.9l4.1,6.1c0.3,0.5,0.5,1.2,0.5,1.9c0,0.7-0.2,1.4-0.5,1.9l-6.4,9.6
				c-0.3,0.5-0.8,0.8-1.3,0.8c-0.5,0-0.9-0.3-1.3-0.8l-4.1-6.1c-0.8,0.6-1.5,1.2-2.6,1.6l0,8.6c0,1.5-0.8,2.7-1.8,2.7L204.3,177
				C204.3,177,204.3,177,204.3,177z M199.7,161.7c0.1,0,0.2,0,0.3,0.1l0.3,0.2c0.9,0.7,1.7,1.3,3,1.8c0.3,0.1,0.6,0.5,0.6,1l0.1,9.4
				c0,0.3,0,0.5,0.5,0.5v1.1l0-1.1l9.1-0.1c0.2,0,0.3-0.2,0.3-0.5l0-9.4c0-0.5,0.2-0.9,0.6-1.1c1.4-0.5,2.2-1.1,3.2-1.9l0.1-0.1
				c0.3-0.2,0.6-0.2,0.9,0.2l4.5,6.6c0.1,0.1,0.2,0.2,0.3,0.2c0.1,0,0.2,0,0.3-0.2l6.4-9.6c0.1-0.1,0.1-0.3,0.1-0.4
				c0-0.1,0-0.2-0.1-0.4l-4.5-6.7c-0.2-0.3-0.3-0.9-0.1-1.3l0-0.1c0.5-1.5,1-2.8,1.3-4.8c0.1-0.5,0.4-0.8,0.7-0.8l6.4,0
				c0.1,0,0.3,0,0.3-0.4l0-13.5c0-0.3-0.2-0.5-0.3-0.5l-6.4,0.2c0,0,0,0,0,0c-0.3,0-0.6-0.5-0.7-1c-0.3-1.9-0.7-3-1.2-4.4l-0.2-0.5
				c-0.2-0.4-0.1-1,0.1-1.3l4.5-6.7c0.1-0.2,0.1-0.5,0-0.7l-6.5-9.5c-0.1-0.1-0.2-0.2-0.2-0.2c-0.1,0-0.2,0.1-0.3,0.2l-4.5,6.7
				c-0.2,0.3-0.6,0.4-0.9,0.2l-0.1-0.1c-1-0.8-1.8-1.4-3.2-1.9c-0.3-0.1-0.6-0.6-0.6-1l0-9.4c0-0.3-0.2-0.7-0.3-0.7l-9.1,0.1
				c-0.2,0-0.4,0.4-0.4,0.7l0,9.4c0,0.5-0.2,0.9-0.6,1.1c-1.3,0.5-2,1.1-3,1.8l-0.3,0.2c-0.3,0.2-0.6,0.2-0.9-0.2l-4.5-6.6
				c-0.1-0.1-0.2-0.2-0.2-0.2c-0.1,0-0.2,0-0.2,0.2l-6.4,9.6c-0.1,0.2-0.1,0.5,0,0.8l4.5,6.6c0.2,0.3,0.3,0.9,0.1,1.3L192,125
				c-0.5,1.4-0.9,2.5-1.2,4.4c-0.1,0.5-0.4,0.8-0.7,0.8l-6.4,0c-0.1,0-0.2,0.1-0.3,0.2c-0.1,0.1-0.1,0.3-0.1,0.4l0,13.5
				c0,0.2,0.2,0.4,0.4,0.4l6.4,0c0.3,0,0.6,0.3,0.7,0.8c0.3,2,0.8,3.2,1.3,4.7l0.1,0.1c0.2,0.4,0.1,0.9-0.1,1.3l-4.5,6.7
				c-0.1,0.1-0.1,0.3-0.1,0.4c0,0.1,0,0.2,0.1,0.4l6.5,9.5c0.1,0.1,0.2,0.2,0.3,0.2c0.1,0,0.2,0,0.2-0.2l4.5-6.7
				C199.3,161.8,199.5,161.7,199.7,161.7z"/>
		</g>
		<path id="XMLID_210_" class="st5" d="M208.5,150c-4.5,0-8.2-5.4-8.2-12c0-6.7,3.6-12.1,8.1-12.2c4.5,0,8.2,5.4,8.2,12
			C216.7,144.5,213,149.9,208.5,150z"/>
	</g>
	<g>
		<ellipse id="XMLID_208_" class="st6" cx="115.1" cy="202.5" rx="15.7" ry="23.3"/>
		<g>
			<polygon id="XMLID_207_" class="st5" points="110.8,209.5 110.8,195.6 120.2,202.6 			"/>
			<path class="st4" d="M111,210.5c-0.1,0-0.3-0.1-0.4-0.2c-0.2-0.2-0.3-0.5-0.3-0.9v-13.9c0-0.4,0.1-0.7,0.3-0.9
				c0.2-0.2,0.5-0.2,0.7,0l9.4,6.9c0.2,0.2,0.4,0.5,0.4,0.9c0,0.4-0.1,0.7-0.4,0.9l-9.4,6.9C111.2,210.5,111.1,210.5,111,210.5z
				 M111.7,197.3v10.6l7.2-5.3L111.7,197.3z"/>
		</g>
	</g>
	<g>
		<g>
			<path id="XMLID_203_" class="st17" d="M153.9,178.1c0-13.2-7.4-23.8-16.3-23.8c-8.9,0-16.2,10.7-16.2,23.8
				c0,10.5,4.5,19.4,10.9,22.6V217h11v-16.3C148.9,197.4,153.9,188.5,153.9,178.1z"/>
			<g>
				<rect id="XMLID_201_" x="131.4" y="217" class="st3" width="11" height="11.5"/>
				<path class="st4" d="M142.7,229.2h-11c-0.4,0-0.7-0.5-0.7-1v-11.5c0-0.6,0.3-1,0.7-1h11c0.4,0,0.7,0.5,0.7,1v11.5
					C143.4,228.7,143,229.2,142.7,229.2z M132.4,227.1h9.6v-9.5h-9.6V227.1z"/>
			</g>
			<g>
				<rect id="XMLID_197_" x="136.9" y="177" class="st4" width="1.4" height="40"/>
			</g>
			<g>
				<path id="XMLID_195_" class="st4" d="M126.2,182.6c-1.1-5.9-0.1-10.4,1-13.1c1.2-2.9,2.6-4.4,2.7-4.5l0.8,1.8
					c-0.2,0.2-5,5.4-3.1,15.2L126.2,182.6z"/>
			</g>
		</g>
	</g>
	<g>
		<g>
			<polygon id="XMLID_193_" class="st6" points="191.5,159.3 191.5,142.4 158.9,142.4 158.9,228.5 227.7,228.5 227.7,159.3 			"/>
			<path class="st4" d="M227.9,229.2h-68.8c-0.4,0-0.7-0.5-0.7-1V142c0-0.6,0.3-1,0.7-1h32.6c0.4,0,0.7,0.5,0.7,1V158h35.5
				c0.4,0,0.7,0.5,0.7,1v69.2C228.6,228.7,228.3,229.2,227.9,229.2z M159.9,227.1h67.4V160h-35.5c-0.4,0-0.7-0.5-0.7-1v-15.9h-31.2
				V227.1z"/>
		</g>
		<g>
			<line id="XMLID_189_" class="st5" x1="191.5" y1="159.3" x2="180.5" y2="159.3"/>
			<rect id="XMLID_188_" x="180.5" y="158" class="st4" width="11" height="2"/>
		</g>
	</g>
	<g>
		<g>
			<path class="st4" d="M230.2,128.8 M230.2,208.2c-0.4,0-0.7-0.5-0.7-1 M307.9,207.1 M307.3,128.8"/>
		</g>
		<g class="st0">
			<path id="XMLID_183_" class="st5" d="M290.5,139.7"/>
			<line id="XMLID_182_" class="st5" x1="237.3" y1="158" x2="237.3" y2="139.7"/>
			<polyline id="XMLID_181_" class="st5" points="254.8,182.4 254.8,164.1 300.6,164.1 300.6,182.4 			"/>
		</g>
	</g>
	<g>
		<g>
			<rect id="XMLID_180_" x="142" y="174.2" class="st5" width="46.8" height="54.3"/>
			<path class="st4" d="M189,229.2h-46.8c-0.4,0-0.7-0.5-0.7-1v-54.3c0-0.6,0.3-1,0.7-1H189c0.4,0,0.7,0.5,0.7,1v54.3
				C189.7,228.7,189.4,229.2,189,229.2z M142.9,227.1h45.4v-52.2h-45.4V227.1z"/>
		</g>
		<rect id="XMLID_177_" x="146.1" y="180.4" class="st3" width="39.9" height="41.4"/>
		<g>
			<path id="XMLID_175_" class="st4" d="M177.7,209.6l-15.5-13.2l-15.8,12.2l-0.7-1.9l16.2-12.4c0.2-0.2,0.5-0.2,0.7,0l15.9,13.5
				L177.7,209.6z"/>
		</g>
		<g>
			<path id="XMLID_173_" class="st4" d="M184.9,203.8l-7.6-7.3l-5.5,7.2l-1-1.6l5.9-7.7c0.2-0.3,0.6-0.4,0.9-0.1l8.1,7.7
				L184.9,203.8z"/>
		</g>
		<ellipse id="XMLID_171_" class="st5" cx="169.2" cy="187.6" rx="3.7" ry="5.4"/>
	</g>
	<g>
		<g>
			<g>
				<path id="XMLID_169_" class="st4" d="M257.4,163.5"/>
				<path id="XMLID_167_" class="st4" d="M255.9,164.2c-0.1-0.2-0.2-0.5-0.2-0.8c0-0.3,0.1-0.6,0.2-0.8"/>
				<path id="XMLID_165_" class="st4" d="M259.3,169.2"/>
			</g>
		</g>
		<g>
			<g>
				<path id="XMLID_163_" class="st4" d="M281.8,175.6"/>
				<path id="XMLID_161_" class="st4" d="M260.7,177.6"/>
			</g>
		</g>
	</g>
	<g>
		<g>
			<g>
				<g>
					<path id="XMLID_160_" class="st4" d="M90.3,193.7l-2.9-4.3c-0.1-0.2-0.2-0.5-0.2-0.8c0-0.3,0.1-0.6,0.2-0.8l2.9-4.2l1,1.6
						l-2.4,3.4l2.4,3.5L90.3,193.7z"/>
				</g>
				<g>
					<rect id="XMLID_159_" x="87.9" y="187.8" class="st4" width="11.9" height="2"/>
				</g>
			</g>
		</g>
		<g>
			<g>
				<g>
					<path id="XMLID_157_" class="st4" d="M102.2,203.5l-1-1.6l2.4-3.4l-2.4-3.5l1-1.5l2.9,4.3c0.1,0.2,0.2,0.5,0.2,0.8
						c0,0.3-0.1,0.6-0.2,0.8L102.2,203.5z"/>
				</g>
				<g>
					<rect id="XMLID_155_" x="92.5" y="198" class="st4" width="11.9" height="2"/>
				</g>
			</g>
		</g>
	</g>
	<g>
		<g>
			<g>
				<g>
					<path id="XMLID_153_" class="st4" d="M178.6,87l-2.9-4.3c-0.1-0.2-0.2-0.5-0.2-0.8c0-0.3,0.1-0.6,0.2-0.8l2.9-4.2l1,1.6
						l-2.4,3.4l2.4,3.5L178.6,87z"/>
				</g>
				<g>
					<rect id="XMLID_151_" x="175.9" y="81.3" class="st4" width="12.4" height="2"/>
				</g>
			</g>
		</g>
		<g>
			<g>
				<g>
					<path id="XMLID_149_" class="st4" d="M190.5,96.9l-1-1.6l2.4-3.4l-2.4-3.5l1-1.5l2.9,4.3c0.1,0.2,0.2,0.5,0.2,0.8
						c0,0.3-0.1,0.6-0.2,0.8L190.5,96.9z"/>
				</g>
				<g>
					<rect id="XMLID_147_" x="180.5" y="90.8" class="st4" width="12.4" height="2"/>
				</g>
			</g>
		</g>
	</g>
	<g>
		<g>
			<g>
				<g>
					<path id="XMLID_145_" class="st4" d="M333.1,209l-2.9-4.3c-0.1-0.2-0.2-0.5-0.2-0.8c0-0.3,0.1-0.6,0.2-0.8l2.9-4.2l1,1.6
						l-2.4,3.4l2.4,3.5L333.1,209z"/>
				</g>
				<g>
					<rect id="XMLID_143_" x="330.9" y="203.4" class="st4" width="11.9" height="2"/>
				</g>
			</g>
		</g>
		<g>
			<g>
				<g>
					<path id="XMLID_141_" class="st4" d="M345.1,218.9l-1-1.6l2.4-3.4l-2.4-3.5l1-1.5l2.9,4.3c0.1,0.2,0.2,0.5,0.2,0.8
						c0,0.3-0.1,0.6-0.2,0.8L345.1,218.9z"/>
				</g>
				<g>
					<rect id="XMLID_139_" x="335.5" y="212.9" class="st4" width="11.9" height="2"/>
				</g>
			</g>
		</g>
	</g>
	<g>
		<g>
			<g>
				<g>
					<path id="XMLID_137_" class="st4" d="M292.1,101.1l-2.9-4.3c-0.1-0.2-0.2-0.5-0.2-0.8c0-0.3,0.1-0.6,0.2-0.8l2.9-4.2l1,1.6
						l-2.4,3.4l2.4,3.5L292.1,101.1z"/>
				</g>
				<g>
					<rect id="XMLID_134_" x="289.6" y="95.6" class="st4" width="11.9" height="2"/>
				</g>
			</g>
		</g>
		<g>
			<g>
				<g>
					<path id="XMLID_132_" class="st4" d="M304,111l-1-1.6l2.4-3.4l-2.4-3.5l1-1.5l2.9,4.3c0.1,0.2,0.2,0.5,0.2,0.8
						c0,0.3-0.1,0.6-0.2,0.8L304,111z"/>
				</g>
				<g>
					<rect id="XMLID_128_" x="294.2" y="105.1" class="st4" width="11.9" height="2"/>
				</g>
			</g>
		</g>
	</g>
</g>
</svg>
