<?xml version="1.0" encoding="utf-8"?>
<!-- Generator: Adobe Illustrator 19.0.0, SVG Export Plug-In . SVG Version: 6.00 Build 0)  -->
<svg version="1.1" id="Layer_1" xmlns="http://www.w3.org/2000/svg" xmlns:xlink="http://www.w3.org/1999/xlink" x="0px" y="0px"
	 viewBox="0 0 620 320" style="enable-background:new 0 0 620 320;" xml:space="preserve">
<style type="text/css">
	.st0{fill-rule:evenodd;clip-rule:evenodd;fill:#FDF2F4;}
	.st1{fill-rule:evenodd;clip-rule:evenodd;fill:#BBBDBF;}
	.st2{fill-rule:evenodd;clip-rule:evenodd;fill:#2C2D2C;}
	.st3{fill-rule:evenodd;clip-rule:evenodd;fill:#FFFFFF;}
	.st4{fill-rule:evenodd;clip-rule:evenodd;fill:#56C4CF;}
	.st5{fill-rule:evenodd;clip-rule:evenodd;fill:#6C8BC6;}
	.st6{fill-rule:evenodd;clip-rule:evenodd;fill:#43525A;}
	.st7{fill-rule:evenodd;clip-rule:evenodd;fill:#F48245;}
	.st8{fill-rule:evenodd;clip-rule:evenodd;fill:#D5CB70;}
	.st9{fill-rule:evenodd;clip-rule:evenodd;fill:#FFCA05;}
	.st10{fill-rule:evenodd;clip-rule:evenodd;fill:#929497;}
	.st11{fill-rule:evenodd;clip-rule:evenodd;fill:#A5CD39;}
	.st12{fill-rule:evenodd;clip-rule:evenodd;fill:#47A4AD;}
	.st13{fill:#4D4D4D;}
	.st14{fill:#F2F2F2;}
	.st15{fill:#808080;}
	.st16{fill:#B3B3B3;}
	.st17{fill:#E6E6E6;}
	.st18{opacity:0.3;fill:#FFFFFF;}
	.st19{fill:#C1272D;}
	.st20{fill:#FCEE21;}
	.st21{fill:#39B54A;}
	.st22{fill:#008077;}
	.st23{fill:#22C7BB;}
	.st24{fill:#00A99D;}
	.st25{opacity:0.3;}
	.st26{fill:#FFFFFF;}
</style>
<g id="XMLID_226_">
	<path id="XMLID_207_" class="st0" d="M244.2,276.8c0-2.2,1.8-4,4.1-4.3l9.1-1l9.1-32.1h67.3l9.1,32.1l9.1,1
		c2.3,0.3,4.1,2.1,4.1,4.3H244.2z"/>
	<polygon id="XMLID_206_" class="st1" points="264.9,244.7 266.4,239.3 333.7,239.3 335.3,244.7 	"/>
	<path id="XMLID_205_" class="st2" d="M130.5,212.5V32.2c0-3.8,3.4-7,7.5-7h318.6c4.2,0,7.5,3.1,7.5,7v180.2H130.5z"/>
	<path id="XMLID_201_" class="st0" d="M456.5,240.4H138c-4.2,0-7.5-3.1-7.5-7v-20.9h333.6v20.9C464.1,237.2,460.7,240.4,456.5,240.4
		z"/>
	<rect id="XMLID_4_" x="140.8" y="37.5" class="st3" width="312.9" height="162.8"/>
	<rect id="XMLID_3_" x="140.8" y="185.8" class="st4" width="312.9" height="14.5"/>
	<g id="XMLID_687_">
		<rect id="XMLID_27_" x="232.5" y="42.4" class="st5" width="129.6" height="7.9"/>
		<rect id="XMLID_28_" x="258.9" y="52.8" class="st5" width="76.7" height="7.9"/>
	</g>
	<g id="XMLID_659_">
		<rect id="XMLID_29_" x="184.2" y="118.6" class="st4" width="39.4" height="60.3"/>
		<g id="XMLID_30_">
			<rect id="XMLID_31_" x="185.1" y="67.8" class="st6" width="134.9" height="46.2"/>
			<g id="XMLID_32_">
				<path id="XMLID_33_" class="st3" d="M311,87.7c-0.2-0.2-0.1-0.6,0.1-0.8c0.3-0.2,0.6-0.1,0.8,0.1l2.9,3.6c0,0,0,0,0,0.1l0,0l0,0
					l0,0c0,0,0,0,0,0l0,0l0,0l0,0l0,0c0,0,0,0,0,0v0l0,0l0,0v0v0v0l0,0l0,0v0c0,0,0,0,0,0.1l0,0l0,0l0,0l0,0c0,0,0,0,0,0l0,0l0,0
					l0,0c0,0,0,0,0,0.1l-2.9,3.6c-0.2,0.2-0.6,0.3-0.8,0.1c-0.3-0.2-0.3-0.5-0.1-0.8l2.7-3.3L311,87.7z"/>
				<path id="XMLID_34_" class="st3" d="M193.2,87c0.2-0.2,0.6-0.3,0.8-0.1c0.3,0.2,0.3,0.5,0.1,0.8l-2.7,3.3l2.7,3.3
					c0.2,0.2,0.1,0.6-0.1,0.8c-0.3,0.2-0.6,0.1-0.8-0.1l-2.9-3.6c0,0,0,0,0-0.1l0,0l0,0l0,0c0,0,0,0,0,0l0,0l0,0l0,0l0,0
					c0,0,0,0,0-0.1v0l0,0l0,0v0v0v0l0,0l0,0v0c0,0,0,0,0,0l0,0l0,0l0,0l0,0l0,0l0,0l0,0l0,0c0,0,0,0,0-0.1L193.2,87z"/>
			</g>
		</g>
		<rect id="XMLID_35_" x="233.8" y="118.6" class="st7" width="39.4" height="29.8"/>
		<rect id="XMLID_36_" x="324.1" y="118.6" class="st8" width="86.2" height="29.8"/>
		<rect id="XMLID_37_" x="324.1" y="67.8" class="st9" width="86.2" height="46.2"/>
		<g id="XMLID_38_">
			<rect id="XMLID_39_" x="233.8" y="151.4" class="st10" width="84.3" height="2.4"/>
			<rect id="XMLID_40_" x="233.8" y="155.8" class="st10" width="84.3" height="2.4"/>
			<rect id="XMLID_41_" x="233.8" y="160.1" class="st10" width="84.3" height="2.4"/>
			<rect id="XMLID_42_" x="233.8" y="164.5" class="st10" width="84.3" height="2.4"/>
			<rect id="XMLID_43_" x="233.8" y="168.9" class="st10" width="84.3" height="2.4"/>
			<rect id="XMLID_44_" x="233.8" y="173.3" class="st10" width="84.3" height="2.4"/>
			<rect id="XMLID_45_" x="233.8" y="177.7" class="st10" width="84.3" height="2.4"/>
		</g>
		<g id="XMLID_46_">
			<rect id="XMLID_47_" x="276.7" y="119.6" class="st10" width="41.4" height="2.4"/>
			<rect id="XMLID_48_" x="276.7" y="124" class="st10" width="41.4" height="2.4"/>
			<rect id="XMLID_49_" x="276.7" y="128.4" class="st10" width="41.4" height="2.4"/>
			<rect id="XMLID_50_" x="276.7" y="132.8" class="st10" width="41.4" height="2.4"/>
			<rect id="XMLID_51_" x="276.7" y="137.2" class="st10" width="41.4" height="2.4"/>
			<rect id="XMLID_52_" x="276.7" y="141.6" class="st10" width="41.4" height="2.4"/>
			<rect id="XMLID_53_" x="276.7" y="145.9" class="st10" width="41.4" height="2.4"/>
		</g>
		<rect id="XMLID_54_" x="324.1" y="151.3" class="st11" width="41.7" height="30"/>
		<rect id="XMLID_55_" x="368.6" y="151.3" class="st12" width="41.7" height="30"/>
	</g>
</g>
<g id="XMLID_22_">
	<g id="XMLID_67_">
		<path id="XMLID_20_" class="st13" d="M592,271H396V136.9c0-2.8,2.9-3.9,5.6-3.9h186.9c2.6,0,3.5,1.1,3.5,3.9V271z"/>
		<rect id="XMLID_19_" x="404" y="142" class="st14" width="182" height="118"/>
		<path id="XMLID_18_" class="st15" d="M608.6,281h-226c-3.5,0-9.5-4-9.5-4h244.9C618.1,277,612.2,281,608.6,281z"/>
		<path id="XMLID_17_" class="st16" d="M618,277H373v-6.6c0-1.4,1.2-2.4,2.5-2.4h240.2c1.3,0,2.3,1,2.3,2.4V277z"/>
		<path id="XMLID_16_" class="st17" d="M516.9,273h-42.6c-3.5,0-3.5-5-3.5-5h49.7C520.5,268,520.5,273,516.9,273z"/>
	</g>
	<path id="XMLID_15_" class="st18" d="M539.4,281h69.2c3.5,0,9.5-4,9.5-4H618v-6.6c0-1.4-1-2.4-2.3-2.4H592V136.9
		c0-2.8-0.9-3.9-3.5-3.9H470L539.4,281z"/>
	<g id="XMLID_61_">
		<rect id="XMLID_14_" x="404" y="142" class="st16" width="182" height="11"/>
		<ellipse id="XMLID_13_" class="st19" cx="409.7" cy="147.3" rx="2.3" ry="2.5"/>
		<ellipse id="XMLID_12_" class="st20" cx="417.1" cy="147.3" rx="2.3" ry="2.5"/>
		<ellipse id="XMLID_11_" class="st21" cx="424.6" cy="147.3" rx="2.3" ry="2.5"/>
	</g>
	<g id="XMLID_23_">
		<rect id="XMLID_10_" x="430" y="163" class="st22" width="54" height="11"/>
		<rect id="XMLID_9_" x="530" y="163" class="st22" width="29" height="5"/>
		<rect id="XMLID_8_" x="430" y="230" class="st23" width="41" height="21"/>
		<rect id="XMLID_7_" x="474" y="230" class="st23" width="40" height="21"/>
		<rect id="XMLID_6_" x="518" y="230" class="st23" width="41" height="21"/>
		<rect id="XMLID_5_" x="430" y="180" class="st24" width="129" height="32"/>
		<rect id="XMLID_2_" x="458" y="217" class="st22" width="73" height="1"/>
		<rect id="XMLID_1_" x="468" y="223" class="st22" width="53" height="2"/>
	</g>
</g>
<rect id="XMLID_78_" x="402.3" y="142" class="st3" width="183.7" height="117.6"/>
<rect id="XMLID_77_" x="402.3" y="249.1" class="st4" width="183.7" height="10.4"/>
<rect id="XMLID_76_" x="456.2" y="145.6" class="st5" width="76" height="5.7"/>
<line id="XMLID_75_" class="st5" x1="471.7" y1="153" x2="516.7" y2="153"/>
<rect id="XMLID_74_" x="427.8" y="200.6" class="st4" width="23.1" height="43.5"/>
<rect id="XMLID_73_" x="428.3" y="163.9" class="st6" width="79.2" height="33.4"/>
<rect id="XMLID_72_" x="456.9" y="200.6" class="st7" width="23.1" height="21.5"/>
<rect id="XMLID_71_" x="509.9" y="200.6" class="st8" width="50.6" height="21.5"/>
<rect id="XMLID_70_" x="509.9" y="163.9" class="st9" width="50.6" height="33.4"/>
<path id="XMLID_89_" class="st10" d="M506.4,224.2"/>
<path id="XMLID_25_" class="st10" d="M456.9,224.2"/>
<path id="XMLID_69_" class="st10" d="M456.9,229.1"/>
<path id="XMLID_90_" class="st10" d="M456.9,232.3"/>
<path id="XMLID_68_" class="st10" d="M506.4,232.3"/>
<path id="XMLID_91_" class="st10" d="M456.9,235.5"/>
<path id="XMLID_66_" class="st10" d="M506.4,235.5"/>
<path id="XMLID_92_" class="st10" d="M506.4,236.9"/>
<path id="XMLID_65_" class="st10" d="M456.9,236.9"/>
<path id="XMLID_93_" class="st10" d="M506.4,240.1"/>
<path id="XMLID_64_" class="st10" d="M456.9,240.1"/>
<path id="XMLID_94_" class="st10" d="M506.4,243.2"/>
<path id="XMLID_63_" class="st10" d="M456.9,243.2"/>
<path id="XMLID_82_" class="st10" d="M482.1,203.1"/>
<path id="XMLID_81_" class="st10" d="M506.4,203.1"/>
<path id="XMLID_83_" class="st10" d="M506.4,204.5"/>
<path id="XMLID_60_" class="st10" d="M482.1,204.5"/>
<path id="XMLID_84_" class="st10" d="M482.1,209.4"/>
<path id="XMLID_59_" class="st10" d="M506.4,209.4"/>
<path id="XMLID_85_" class="st10" d="M506.4,210.8"/>
<path id="XMLID_58_" class="st10" d="M482.1,210.8"/>
<path id="XMLID_86_" class="st10" d="M506.4,214"/>
<path id="XMLID_57_" class="st10" d="M482.1,214"/>
<path id="XMLID_87_" class="st10" d="M482.1,218.9"/>
<path id="XMLID_56_" class="st10" d="M506.4,218.9"/>
<path id="XMLID_88_" class="st10" d="M482.1,222.1"/>
<path id="XMLID_26_" class="st10" d="M506.4,222.1"/>
<rect id="XMLID_24_" x="509.9" y="224.2" class="st11" width="24.5" height="21.7"/>
<rect id="XMLID_21_" x="536" y="224.2" class="st12" width="24.5" height="21.7"/>
<rect id="XMLID_79_" x="485.2" y="200.6" class="st10" width="21.8" height="1.4"/>
<rect id="XMLID_62_" x="485.2" y="202.8" class="st10" width="21.8" height="1.4"/>
<rect id="XMLID_80_" x="485.2" y="205.3" class="st10" width="21.8" height="1.4"/>
<rect id="XMLID_95_" x="485.2" y="207.6" class="st10" width="21.8" height="1.4"/>
<rect id="XMLID_96_" x="485.2" y="209.6" class="st10" width="21.8" height="1.4"/>
<rect id="XMLID_97_" x="485.2" y="211.6" class="st10" width="21.8" height="1.4"/>
<rect id="XMLID_98_" x="485.2" y="213.6" class="st10" width="21.8" height="1.4"/>
<rect id="XMLID_99_" x="485.2" y="216.6" class="st10" width="21.8" height="1.4"/>
<rect id="XMLID_100_" x="485.2" y="218.6" class="st10" width="21.8" height="1.4"/>
<rect id="XMLID_101_" x="456.2" y="228.6" class="st10" width="49.2" height="1.4"/>
<rect id="XMLID_102_" x="456.2" y="225.6" class="st10" width="49.2" height="1.4"/>
<rect id="XMLID_103_" x="456.2" y="231.6" class="st10" width="49.2" height="1.4"/>
<rect id="XMLID_104_" x="456.2" y="234.6" class="st10" width="49.2" height="1.4"/>
<rect id="XMLID_105_" x="456.2" y="237.6" class="st10" width="49.2" height="1.4"/>
<rect id="XMLID_106_" x="456.2" y="240.6" class="st10" width="49.2" height="1.4"/>
<rect id="XMLID_107_" x="456.2" y="243.6" class="st10" width="49.2" height="1.4"/>
<rect id="XMLID_108_" x="467.9" y="153.8" class="st5" width="52.6" height="4.4"/>
<g id="XMLID_110_">
	<g id="XMLID_123_">
		<path id="XMLID_126_" class="st13" d="M176,270.8c0,5.5-4.3,10.2-9.8,10.2h-103c-5.5,0-10.2-4.7-10.2-10.2V128.2
			c0-5.5,4.7-10.2,10.2-10.2h103c5.5,0,9.8,4.7,9.8,10.2V270.8z"/>
		<rect id="XMLID_125_" x="63" y="130" class="st14" width="103" height="125"/>
		<path id="XMLID_124_" class="st16" d="M123,267.9c0,4.6-3.7,8.3-8.3,8.3c-4.6,0-8.3-3.7-8.3-8.3c0-4.6,3.7-8.3,8.3-8.3
			C119.3,259.7,123,263.4,123,267.9z"/>
	</g>
	<g id="XMLID_113_">
		<g id="XMLID_114_">
			<rect id="XMLID_122_" x="72" y="141" class="st22" width="36" height="13"/>
			<rect id="XMLID_121_" x="138" y="141" class="st22" width="19" height="6"/>
			<rect id="XMLID_120_" x="72" y="219" class="st23" width="27" height="24"/>
			<rect id="XMLID_119_" x="102" y="219" class="st23" width="26" height="24"/>
			<rect id="XMLID_118_" x="131" y="219" class="st23" width="26" height="24"/>
			<rect id="XMLID_117_" x="72" y="160" class="st24" width="85" height="38"/>
			<rect id="XMLID_116_" x="91" y="202" class="st22" width="48" height="4"/>
			<rect id="XMLID_115_" x="97" y="210" class="st22" width="35" height="4"/>
		</g>
	</g>
	<g id="XMLID_111_" class="st25">
		<path id="XMLID_112_" class="st26" d="M90.2,118h76c5.5,0,9.8,4.7,9.8,10.2v142.6c0,5.5-4.3,10.2-9.8,10.2h-27L90.2,118z"/>
	</g>
</g>
<g id="XMLID_127_">
	<path id="XMLID_142_" class="st13" d="M69,285.5c0,3.5-3.5,6.5-6.9,6.5H22.4c-3.5,0-6.4-3-6.4-6.5v-87.4c0-3.5,2.9-6.1,6.4-6.1
		h39.7c3.5,0,6.9,2.6,6.9,6.1V285.5z"/>
	<g id="XMLID_137_">
		<path id="XMLID_141_" class="st13" d="M69,285.5c0,3.5-3.5,6.5-6.9,6.5H22.4c-3.5,0-6.4-3-6.4-6.5v-87.4c0-3.5,2.9-6.1,6.4-6.1
			h39.7c3.5,0,6.9,2.6,6.9,6.1V285.5z"/>
		<rect id="XMLID_140_" x="20" y="204" class="st14" width="45" height="74"/>
		<ellipse id="XMLID_139_" class="st16" cx="42.2" cy="284.7" rx="3.8" ry="3.9"/>
		<path id="XMLID_138_" class="st16" d="M51.1,199c0,0.6-0.5,1-1,1H31.5c-0.6,0-1-0.4-1-1l0,0c0-0.6,0.5-1,1-1h18.6
			C50.6,198,51.1,198.4,51.1,199L51.1,199z"/>
	</g>
	<g id="XMLID_129_">
		<g id="XMLID_130_">
			<rect id="XMLID_136_" x="28" y="217" class="st22" width="29" height="7"/>
			<rect id="XMLID_135_" x="34" y="211" class="st22" width="16" height="3"/>
			<rect id="XMLID_134_" x="28" y="258" class="st23" width="29" height="13"/>
			<rect id="XMLID_133_" x="28" y="227" class="st24" width="29" height="20"/>
			<rect id="XMLID_132_" x="31" y="250" class="st22" width="23" height="2"/>
			<rect id="XMLID_131_" x="28" y="253" class="st22" width="29" height="3"/>
		</g>
	</g>
	<path id="XMLID_128_" class="st18" d="M32.9,192h29.1c3.5,0,6.9,2.6,6.9,6.1v87.4c0,3.5-3.5,6.5-6.9,6.5h-8.5L32.9,192z"/>
</g>
</svg>
