<?xml version="1.0" encoding="iso-8859-1"?>
<!-- Generator: Adobe Illustrator 19.0.0, SVG Export Plug-In . SVG Version: 6.00 Build 0)  -->
<svg version="1.1" id="Layer_1" xmlns="http://www.w3.org/2000/svg" xmlns:xlink="http://www.w3.org/1999/xlink" x="0px" y="0px"
	 viewBox="0 0 302.917 302.917" style="enable-background:new 0 0 302.917 302.917;" xml:space="preserve">
<g>
	<path style="fill:#A47D73;" d="M46.072,0h125.501c8.203,0,14.853,6.65,14.853,14.853v18.861H31.219V14.853
		C31.219,6.65,37.869,0,46.072,0z"/>
	<path style="fill:#8A6A61;" d="M46.072,0h62.75v33.714H31.219V14.853C31.219,6.65,37.869,0,46.072,0z"/>
	<path style="fill:#FAD0B0;" d="M32.028,31.38h153.589c5.209,0,10.111,2.462,13.222,6.639l2.859,3.839
		c7.064,9.485,10.879,20.996,10.879,32.822v205.98c0,9.974-8.086,18.06-18.06,18.06H23.127c-9.974,0-18.06-8.086-18.06-18.06V74.68
		c0-11.826,3.815-23.337,10.879-32.822l2.859-3.839C21.917,33.841,26.819,31.38,32.028,31.38z"/>
	<path style="fill:#EBC5A7;" d="M32.028,31.38h76.795v267.34H23.127c-9.974,0-18.06-8.086-18.06-18.06V74.68
		c0-11.826,3.815-23.337,10.879-32.822l2.859-3.839C21.917,33.841,26.819,31.38,32.028,31.38z"/>
	<rect x="5.068" y="113.664" style="fill:#C8F9EC;" width="207.51" height="116.046"/>
	<rect x="5.068" y="113.664" style="fill:#C9E4DF;" width="103.755" height="116.046"/>
</g>
<rect x="269.432" y="86.917" style="fill:#A47D73;" width="13.032" height="216"/>
<rect x="269.432" y="86.917" style="fill:#8A6A61;" width="6.516" height="216"/>
<path style="fill:#E2EBD5;" d="M275.948,97.072c12.076,0,21.901-9.825,21.901-21.901s-9.825-21.901-21.901-21.901
	s-21.901,9.825-21.901,21.901S263.872,97.072,275.948,97.072z"/>
<path style="fill:#D7E0CB;" d="M275.948,97.072V53.269c-12.076,0-21.901,9.825-21.901,21.901S263.872,97.072,275.948,97.072z"/>
<g>
</g>
<g>
</g>
<g>
</g>
<g>
</g>
<g>
</g>
<g>
</g>
<g>
</g>
<g>
</g>
<g>
</g>
<g>
</g>
<g>
</g>
<g>
</g>
<g>
</g>
<g>
</g>
<g>
</g>
</svg>
