<?xml version="1.0" encoding="iso-8859-1"?>
<!-- Generator: Adobe Illustrator 19.1.0, SVG Export Plug-In . SVG Version: 6.00 Build 0)  -->
<svg version="1.1" id="Capa_1" xmlns="http://www.w3.org/2000/svg" xmlns:xlink="http://www.w3.org/1999/xlink" x="0px" y="0px"
	 viewBox="0 0 412.651 412.651" style="enable-background:new 0 0 412.651 412.651;" xml:space="preserve">
<g>
	<path style="fill:#999999;" d="M238.264,175.274c0-15.91-11.694-29.138-26.939-31.544v63.089
		C226.57,204.412,238.264,191.184,238.264,175.274z"/>
	<path style="fill:#999999;" d="M146.806,289.834c-13.176,0-23.894,10.719-23.894,23.893c0,13.172,10.718,23.887,23.894,23.887
		c13.17,0,23.885-10.715,23.885-23.887C170.691,300.552,159.976,289.834,146.806,289.834z"/>
	<path style="fill:#999999;" d="M139.673,225.776c0-13.175-10.716-23.894-23.887-23.894c-13.174,0-23.892,10.719-23.892,23.894
		c0,13.17,10.719,23.885,23.892,23.885C128.957,249.661,139.673,238.946,139.673,225.776z"/>
	<path style="fill:#999999;" d="M154.429,11.43c-4.139,0-7.506,3.368-7.506,7.509c0,4.139,3.367,7.505,7.506,7.505
		c4.139,0,7.506-3.366,7.506-7.505C161.935,14.798,158.568,11.43,154.429,11.43z"/>
	<path style="fill:#CCCCCC;" d="M206.324,47.579c-58.382,0-106.32,30.385-110.186,68.699h220.373
		C312.646,77.963,264.706,47.579,206.324,47.579z"/>
	<path style="fill:#999999;" d="M258.22,26.444c4.139,0,7.506-3.366,7.506-7.505c0-4.141-3.367-7.509-7.506-7.509
		c-4.139,0-7.506,3.368-7.506,7.509C250.714,23.078,254.081,26.444,258.22,26.444z"/>
	<path style="fill:#CC6633;" d="M201.325,216.905c-20.775-2.48-36.939-20.198-36.939-41.631c0-21.433,16.164-39.149,36.939-41.63
		v-7.366H93.4C69.747,156.488,56.75,195.05,56.75,235.155c0,72.988,42.63,135.129,101.697,157.343
		c23.987-5.448,38.955-58.366,42.878-79.241V216.905z M81.894,225.776c0-18.689,15.205-33.894,33.892-33.894
		c18.686,0,33.887,15.204,33.887,33.894c0,18.685-15.201,33.885-33.887,33.885C97.099,259.661,81.894,244.461,81.894,225.776z
		 M146.806,347.613c-18.689,0-33.894-15.201-33.894-33.887c0-18.688,15.204-33.893,33.894-33.893
		c18.684,0,33.885,15.205,33.885,33.893C180.691,332.412,165.489,347.613,146.806,347.613z"/>
	<path style="fill:#999999;" d="M272.978,225.776c0,13.17,10.715,23.885,23.885,23.885c13.175,0,23.893-10.715,23.893-23.885
		c0-13.175-10.718-23.894-23.893-23.894C283.693,201.882,272.978,212.601,272.978,225.776z"/>
	<path style="fill:#999999;" d="M265.845,289.834c-13.171,0-23.887,10.719-23.887,23.893c0,13.172,10.716,23.887,23.887,23.887
		c13.174,0,23.893-10.715,23.893-23.887C289.737,300.552,279.019,289.834,265.845,289.834z"/>
	<path style="fill:#CC6633;" d="M211.325,126.278v7.366c20.774,2.48,36.939,20.197,36.939,41.63
		c0,21.433-16.164,39.15-36.939,41.631v96.352c3.922,20.874,18.889,73.788,42.874,79.24c59.069-22.214,101.7-84.354,101.7-157.342
		c0-40.104-12.998-78.666-36.653-108.877H211.325z M265.845,347.613c-18.686,0-33.887-15.201-33.887-33.887
		c0-18.688,15.201-33.893,33.887-33.893c18.688,0,33.893,15.205,33.893,33.893C299.737,332.412,284.532,347.613,265.845,347.613z
		 M330.755,225.776c0,18.685-15.203,33.885-33.893,33.885c-18.684,0-33.885-15.2-33.885-33.885
		c0-18.689,15.201-33.894,33.885-33.894C315.552,191.882,330.755,207.086,330.755,225.776z"/>
	<path style="fill:#999999;" d="M201.325,206.819V143.73c-15.244,2.406-26.939,15.634-26.939,31.544
		C174.386,191.184,186.081,204.412,201.325,206.819z"/>
	<path style="fill:#999999;" d="M206.325,335.004c-1.764,6.206-11.191,46.907-34,61.886c10.926,2.83,22.306,4.33,33.996,4.33
		c11.692,0,23.075-1.501,34.003-4.332C221.003,385.777,208.089,341.211,206.325,335.004z"/>
	<path style="fill:#663333;" d="M149.673,225.776c0-18.689-15.201-33.894-33.887-33.894c-18.688,0-33.892,15.204-33.892,33.894
		c0,18.685,15.205,33.885,33.892,33.885C134.472,259.661,149.673,244.461,149.673,225.776z M91.894,225.776
		c0-13.175,10.719-23.894,23.892-23.894c13.171,0,23.887,10.719,23.887,23.894c0,13.17-10.716,23.885-23.887,23.885
		C102.612,249.661,91.894,238.946,91.894,225.776z"/>
	<path style="fill:#663333;" d="M146.806,279.834c-18.689,0-33.894,15.205-33.894,33.893c0,18.686,15.204,33.887,33.894,33.887
		c18.684,0,33.885-15.201,33.885-33.887C180.691,295.039,165.489,279.834,146.806,279.834z M146.806,337.613
		c-13.176,0-23.894-10.715-23.894-23.887c0-13.174,10.718-23.893,23.894-23.893c13.17,0,23.885,10.719,23.885,23.893
		C170.691,326.898,159.976,337.613,146.806,337.613z"/>
	<path style="fill:#663333;" d="M262.978,225.776c0,18.685,15.201,33.885,33.885,33.885c18.69,0,33.893-15.2,33.893-33.885
		c0-18.689-15.203-33.894-33.893-33.894C278.179,191.882,262.978,207.086,262.978,225.776z M320.755,225.776
		c0,13.17-10.718,23.885-23.893,23.885c-13.17,0-23.885-10.715-23.885-23.885c0-13.175,10.715-23.894,23.885-23.894
		C310.037,201.882,320.755,212.601,320.755,225.776z"/>
	<path style="fill:#663333;" d="M265.845,279.834c-18.686,0-33.887,15.205-33.887,33.893c0,18.686,15.201,33.887,33.887,33.887
		c18.688,0,33.893-15.201,33.893-33.887C299.737,295.039,284.532,279.834,265.845,279.834z M265.845,337.613
		c-13.171,0-23.887-10.715-23.887-23.887c0-13.174,10.716-23.893,23.887-23.893c13.174,0,23.893,10.719,23.893,23.893
		C289.737,326.898,279.019,337.613,265.845,337.613z"/>
	<path style="fill:#663333;" d="M374.07,164.506c-9.684-3.329-18.484-3.927-23.209-3.962c-6.233-14.688-14.316-28.465-24.121-40.899
		c-0.153-5.646-1.094-11.193-2.791-16.58c6.982-3.313,17.436-12.883,20.025-40.532c0.014-0.154,0.022-31.717,0.022-31.717
		c0-2.762-2.238-5-5-5c-2.762,0-5,2.238-5,5v31.015c-2.147,22.443-9.601,29.637-13.807,31.93
		c-5.985-12.066-15.939-23.077-29.415-32.264c-17.654-12.035-39.802-19.827-63.799-22.682c1.683-7.191,7.394-12.841,14.621-14.424
		c2.299,6.988,8.877,12.052,16.624,12.052c9.652,0,17.506-7.853,17.506-17.505c0-9.654-7.854-17.509-17.506-17.509
		c-8.031,0-14.801,5.446-16.853,12.835c-12.346,1.847-22.185,11.433-24.426,23.647c-3.513-0.212-7.051-0.334-10.617-0.334
		c-3.565,0-7.102,0.122-10.614,0.333c-2.241-12.215-12.082-21.805-24.429-23.65C169.228,6.875,162.46,1.43,154.429,1.43
		c-9.652,0-17.506,7.854-17.506,17.509c0,9.652,7.854,17.505,17.506,17.505c7.748,0,14.327-5.065,16.625-12.053
		c7.23,1.583,12.941,7.233,14.625,14.425c-23.999,2.854-46.148,10.646-63.803,22.682c-13.484,9.191-23.441,20.211-29.426,32.284
		c-4.149-2.28-11.645-9.478-13.797-31.95V30.817c0-2.762-2.238-5-5-5c-2.761,0-5,2.238-5,5c0,0,0.008,31.562,0.022,31.717
		c2.59,27.654,13.043,37.218,20.025,40.53c-1.697,5.387-2.638,10.933-2.791,16.577c-9.806,12.435-17.89,26.214-24.122,40.903
		c-4.727,0.035-13.525,0.634-23.209,3.962c-13.19,4.533-30.551,15.133-38.348,39.884c-0.83,2.634,0.642,5.411,3.267,6.271
		c2.897,0.949,5.599-1.133,6.271-3.267c9.556-30.335,35.606-35.859,48.064-36.723c-7.263,20.355-11.084,42.197-11.084,64.483
		c0,31.644,7.61,61.361,20.909,87.051c-6.6,6.83-19.658,26.37-13.471,70.468c0.352,2.5,2.366,4.646,5.646,4.256
		c2.742-0.326,4.641-2.91,4.258-5.645c-4.989-35.554,3.463-52.776,8.754-59.756c28.538,47.956,77.707,79.691,133.475,79.691
		c55.77,0,104.939-31.735,133.48-79.69c5.29,6.977,13.744,24.195,8.755,59.755c-0.384,2.734,1.52,5.277,4.257,5.645
		c3.142,0.422,5.296-1.758,5.647-4.256c6.186-44.09-6.868-63.635-13.471-70.468c13.3-25.69,20.91-55.407,20.91-87.051
		c0-22.265-3.814-44.087-11.065-64.426c12.454,0.965,38.589,6.648,48.045,36.665c0.673,2.135,2.858,4.326,6.272,3.267
		c2.638-0.819,4.097-3.637,3.268-6.271C404.621,179.639,387.261,169.04,374.07,164.506z M258.22,11.43
		c4.139,0,7.506,3.368,7.506,7.509c0,4.139-3.367,7.505-7.506,7.505c-4.139,0-7.506-3.366-7.506-7.505
		C250.714,14.798,254.081,11.43,258.22,11.43z M154.429,26.444c-4.139,0-7.506-3.366-7.506-7.505c0-4.141,3.367-7.509,7.506-7.509
		c4.139,0,7.506,3.368,7.506,7.509C161.935,23.078,158.568,26.444,154.429,26.444z M206.324,47.579
		c58.382,0,106.321,30.385,110.187,68.699H96.138C100.004,77.963,147.943,47.579,206.324,47.579z M211.325,143.73
		c15.244,2.406,26.939,15.634,26.939,31.544c0,15.91-11.694,29.138-26.939,31.545V143.73z M158.447,392.498
		C99.38,370.284,56.75,308.143,56.75,235.155c0-40.104,12.997-78.667,36.649-108.877h107.926v7.366
		c-20.775,2.48-36.939,20.197-36.939,41.63c0,21.433,16.164,39.15,36.939,41.631v96.352
		C197.403,334.131,182.435,387.049,158.447,392.498z M201.325,143.73v63.089c-15.244-2.407-26.939-15.635-26.939-31.545
		C174.386,159.364,186.081,146.136,201.325,143.73z M206.321,401.22c-11.69,0-23.07-1.5-33.996-4.33
		c22.809-14.979,32.236-55.68,34-61.886c1.764,6.206,14.678,50.772,33.999,61.884C229.397,399.719,218.014,401.22,206.321,401.22z
		 M355.9,235.155c0,72.987-42.631,135.128-101.7,157.342c-23.985-5.452-38.952-58.366-42.874-79.24v-96.352
		c20.774-2.48,36.939-20.198,36.939-41.631c0-21.433-16.164-39.149-36.939-41.63v-7.366h107.921
		C342.902,156.489,355.9,195.051,355.9,235.155z"/>
</g>
<g>
</g>
<g>
</g>
<g>
</g>
<g>
</g>
<g>
</g>
<g>
</g>
<g>
</g>
<g>
</g>
<g>
</g>
<g>
</g>
<g>
</g>
<g>
</g>
<g>
</g>
<g>
</g>
<g>
</g>
</svg>
